# xmcd
#
# Track frame offsets:
#	150
#	11198
#	23344
#	35351
#	45440
#	57756
#	70713
#	79994
#	89932
#	102388
#	116057
#	138427
#
# Disc length: 2222 seconds
#
# Revision: 1
# Processed by: cddbd v1.4PL0 Copyright (c) Steve Scherf et al.
# Submitted via: EasyCDDAExtractor 5.0.6
#
DISCID=9c08ac0c
DTITLE=Dolly Parton - Mine
DYEAR=2003
DGENRE=Country
TTITLE0=It Wasn't God Who Made Honky Tonk Angels (1963)
TTITLE1=Making Believe (1963)
TTITLE2=Letter To Heaven (1963)
TTITLE3=Release Me (1963)
TTITLE4=Two Little Orphans (1963)
TTITLE5=Little Blossom (1963)
TTITLE6=Mine (1969)
TTITLE7=Don't Let It Trouble Your Mind (1969)
TTITLE8=Mama Say A Prayer (1969)
TTITLE9=Comin' For To Carry Me Home (1971)
TTITLE10=Just As Good As Gone (1972)
TTITLE11=Light of a Clear Blue Morning - Video (1992)
EXTD=
EXTT0=
EXTT1=
EXTT2=
EXTT3=
EXTT4=
EXTT5=
EXTT6=
EXTT7=
EXTT8=
EXTT9=
EXTT10=
EXTT11=
PLAYORDER=
